<svg width="61" height="61" viewBox="0 0 61 61" fill="none" xmlns="http://www.w3.org/2000/svg">
<path d="M22.875 28.5938H11.6472C12.0015 26.2345 12.8439 23.975 14.1207 21.9597C15.3975 19.9444 17.0806 18.2175 19.0625 16.8894L22.4747 14.6019L20.3778 11.4375L16.9656 13.725C14.0934 15.639 11.7381 18.2324 10.1087 21.2751C8.4793 24.3178 7.62616 27.7157 7.625 31.1672V43.8438C7.625 44.8549 8.02667 45.8246 8.74166 46.5396C9.45664 47.2546 10.4264 47.6562 11.4375 47.6562H22.875C23.8861 47.6562 24.8559 47.2546 25.5708 46.5396C26.2858 45.8246 26.6875 44.8549 26.6875 43.8438V32.4062C26.6875 31.3951 26.2858 30.4254 25.5708 29.7104C24.8559 28.9954 23.8861 28.5938 22.875 28.5938Z" fill="#242424"/>
<path d="M37.8402 28.5195L37.754 29.0938H38.3347H49.5625C50.441 29.0938 51.2836 29.4427 51.9048 30.064C52.526 30.6852 52.875 31.5277 52.875 32.4062V43.8438C52.875 44.7223 52.526 45.5648 51.9048 46.186C51.2836 46.8073 50.441 47.1562 49.5625 47.1562H38.125C37.2465 47.1562 36.4039 46.8073 35.7827 46.186C35.1615 45.5648 34.8125 44.7223 34.8125 43.8438L34.8125 31.1674C34.8125 31.1673 34.8125 31.1672 34.8125 31.1672C34.8137 27.798 35.6465 24.4813 37.237 21.5112C38.8276 18.541 41.1267 16.0095 43.9304 14.1411L43.9305 14.141L46.9428 12.1328L48.4724 14.4623L45.4717 16.474C43.432 17.8408 41.6999 19.618 40.3858 21.6921C39.0718 23.7661 38.2048 26.0915 37.8402 28.5195Z" fill="#242424"/>
<path d="M37.8402 28.5195L37.754 29.0938H38.3347H49.5625C50.441 29.0938 51.2836 29.4427 51.9048 30.064C52.526 30.6852 52.875 31.5277 52.875 32.4062V43.8438C52.875 44.7223 52.526 45.5648 51.9048 46.186C51.2836 46.8073 50.441 47.1562 49.5625 47.1562H38.125C37.2465 47.1562 36.4039 46.8073 35.7827 46.186C35.1615 45.5648 34.8125 44.7223 34.8125 43.8438L34.8125 31.1674C34.8125 31.1673 34.8125 31.1672 34.8125 31.1672C34.8137 27.798 35.6465 24.4813 37.237 21.5112C38.8276 18.541 41.1267 16.0095 43.9304 14.1411L43.9305 14.141L46.9428 12.1328L48.4724 14.4623L45.4717 16.474C43.432 17.8408 41.6999 19.618 40.3858 21.6921C39.0718 23.7661 38.2048 26.0915 37.8402 28.5195Z" stroke="black"/>
<path d="M37.8402 28.5195L37.754 29.0938H38.3347H49.5625C50.441 29.0938 51.2836 29.4427 51.9048 30.064C52.526 30.6852 52.875 31.5277 52.875 32.4062V43.8438C52.875 44.7223 52.526 45.5648 51.9048 46.186C51.2836 46.8073 50.441 47.1562 49.5625 47.1562H38.125C37.2465 47.1562 36.4039 46.8073 35.7827 46.186C35.1615 45.5648 34.8125 44.7223 34.8125 43.8438L34.8125 31.1674C34.8125 31.1673 34.8125 31.1672 34.8125 31.1672C34.8137 27.798 35.6465 24.4813 37.237 21.5112C38.8276 18.541 41.1267 16.0095 43.9304 14.1411L43.9305 14.141L46.9428 12.1328L48.4724 14.4623L45.4717 16.474C43.432 17.8408 41.6999 19.618 40.3858 21.6921C39.0718 23.7661 38.2048 26.0915 37.8402 28.5195Z" stroke="black" stroke-opacity="0.2"/>
</svg>
