<svg width="61" height="61" viewBox="0 0 61 61" fill="none" xmlns="http://www.w3.org/2000/svg">
<g filter="url(#filter0_d)">
<path d="M22.875 28.5938H11.6472C12.0015 26.2345 12.8439 23.975 14.1207 21.9597C15.3975 19.9444 17.0806 18.2175 19.0625 16.8894L22.4747 14.6019L20.3778 11.4375L16.9656 13.725C14.0934 15.639 11.7381 18.2324 10.1087 21.2751C8.4793 24.3178 7.62616 27.7157 7.625 31.1672V43.8438C7.625 44.8549 8.02667 45.8246 8.74166 46.5396C9.45664 47.2546 10.4264 47.6562 11.4375 47.6562H22.875C23.8861 47.6562 24.8559 47.2546 25.5708 46.5396C26.2858 45.8246 26.6875 44.8549 26.6875 43.8438V32.4062C26.6875 31.3951 26.2858 30.4254 25.5708 29.7104C24.8559 28.9954 23.8861 28.5938 22.875 28.5938Z" fill="#242424"/>
<path d="M49.5625 28.5938H38.3347C38.689 26.2345 39.5314 23.975 40.8082 21.9597C42.085 19.9444 43.7681 18.2175 45.75 16.8894L49.1622 14.6019L47.0844 11.4375L43.6531 13.725C40.7809 15.639 38.4256 18.2324 36.7962 21.2751C35.1668 24.3178 34.3137 27.7157 34.3125 31.1672V43.8438C34.3125 44.8549 34.7142 45.8246 35.4292 46.5396C36.1441 47.2546 37.1139 47.6562 38.125 47.6562H49.5625C50.5736 47.6562 51.5434 47.2546 52.2583 46.5396C52.9733 45.8246 53.375 44.8549 53.375 43.8438V32.4062C53.375 31.3951 52.9733 30.4254 52.2583 29.7104C51.5434 28.9954 50.5736 28.5938 49.5625 28.5938Z" fill="#242424"/>
</g>
<defs>
<filter id="filter0_d" x="-4" y="0" width="69" height="69" filterUnits="userSpaceOnUse" color-interpolation-filters="sRGB">
<feFlood flood-opacity="0" result="BackgroundImageFix"/>
<feColorMatrix in="SourceAlpha" type="matrix" values="0 0 0 0 0 0 0 0 0 0 0 0 0 0 0 0 0 0 127 0" result="hardAlpha"/>
<feOffset dy="4"/>
<feGaussianBlur stdDeviation="2"/>
<feComposite in2="hardAlpha" operator="out"/>
<feColorMatrix type="matrix" values="0 0 0 0 0 0 0 0 0 0 0 0 0 0 0 0 0 0 0.25 0"/>
<feBlend mode="normal" in2="BackgroundImageFix" result="effect1_dropShadow"/>
<feBlend mode="normal" in="SourceGraphic" in2="effect1_dropShadow" result="shape"/>
</filter>
</defs>
</svg>
