<svg width="61" height="61" viewBox="0 0 61 61" fill="none" xmlns="http://www.w3.org/2000/svg">
<g filter="url(#filter0_d)">
<path d="M38.125 28.5938H49.3528C48.9985 26.2345 48.1561 23.975 46.8793 21.9597C45.6025 19.9444 43.9194 18.2175 41.9375 16.8894L38.5253 14.6019L40.6222 11.4375L44.0344 13.725C46.9066 15.639 49.2619 18.2324 50.8913 21.2751C52.5207 24.3178 53.3738 27.7157 53.375 31.1672V43.8438C53.375 44.8549 52.9733 45.8246 52.2583 46.5396C51.5434 47.2546 50.5736 47.6562 49.5625 47.6562H38.125C37.1139 47.6562 36.1441 47.2546 35.4292 46.5396C34.7142 45.8246 34.3125 44.8549 34.3125 43.8438V32.4062C34.3125 31.3951 34.7142 30.4254 35.4292 29.7104C36.1441 28.9954 37.1139 28.5938 38.125 28.5938Z" fill="#242424"/>
<path d="M11.4375 28.5938H22.6653C22.311 26.2345 21.4686 23.975 20.1918 21.9597C18.915 19.9444 17.2319 18.2175 15.25 16.8894L11.8378 14.6019L13.9156 11.4375L17.3469 13.725C20.2191 15.639 22.5744 18.2324 24.2038 21.2751C25.8332 24.3178 26.6863 27.7157 26.6875 31.1672V43.8438C26.6875 44.8549 26.2858 45.8246 25.5708 46.5396C24.8559 47.2546 23.8861 47.6562 22.875 47.6562H11.4375C10.4264 47.6562 9.45664 47.2546 8.74166 46.5396C8.02667 45.8246 7.625 44.8549 7.625 43.8438V32.4062C7.625 31.3951 8.02667 30.4254 8.74166 29.7104C9.45664 28.9954 10.4264 28.5938 11.4375 28.5938Z" fill="#242424"/>
</g>
<defs>
<filter id="filter0_d" x="-4" y="0" width="69" height="69" filterUnits="userSpaceOnUse" color-interpolation-filters="sRGB">
<feFlood flood-opacity="0" result="BackgroundImageFix"/>
<feColorMatrix in="SourceAlpha" type="matrix" values="0 0 0 0 0 0 0 0 0 0 0 0 0 0 0 0 0 0 127 0" result="hardAlpha"/>
<feOffset dy="4"/>
<feGaussianBlur stdDeviation="2"/>
<feComposite in2="hardAlpha" operator="out"/>
<feColorMatrix type="matrix" values="0 0 0 0 0 0 0 0 0 0 0 0 0 0 0 0 0 0 0.25 0"/>
<feBlend mode="normal" in2="BackgroundImageFix" result="effect1_dropShadow"/>
<feBlend mode="normal" in="SourceGraphic" in2="effect1_dropShadow" result="shape"/>
</filter>
</defs>
</svg>
